# xmcd CD database file
#
# Track frame offsets:
#	150
#	13020
#	26865
#	39322
#	52145
#	64135
#	76057
#	90917
#	102987
#	118857
#	130160
#	142457
#
# Disc length: 2066 seconds
#
# Revision: 3
# Processed by: cddbd v1.5.2PL0 Copyright (c) Steve Scherf et al.
# Submitted via: CDex 1.51
#
DISCID=a508100c
DTITLE=Various Artist - Legendary Singing Cowboys
DYEAR=1995
DGENRE=Country
TTITLE0=Gene Autry and Smiley Burnette - Ridin' Down the Canyon
TTITLE1=Smiley Burnette - Mama Don't Allow No Music
TTITLE2=Tex Ritter - A-Riding Old Paint
TTITLE3=Sons of the Pioneers - Roving Cowboy
TTITLE4=Roy Rogers - Dust
TTITLE5=Ray Whitley and His 6 Bar Cowboys - Back in the Saddle Again
TTITLE6=Smith Ballew - Drifting
TTITLE7=Herb Jeffries - I'm a Happy Cowboy
TTITLE8=Eddie Dean - On the Banks of the Sunny San Juan
TTITLE9=Jimmy Wakely - Along the Santa Fe Trail
TTITLE10=Johhny Bond - Cimmarron
TTITLE11=Rex Allen with Harry Geller and His Orchestra - Cowpoke
EXTD=YEAR: 1995
EXTT0=
EXTT1=
EXTT2=
EXTT3=
EXTT4=
EXTT5=
EXTT6=
EXTT7=
EXTT8=
EXTT9=
EXTT10=
EXTT11=
PLAYORDER=
